<svg xmlns="http://www.w3.org/2000/svg" viewBox="0 0 500 500"><g id="freepik--background-complete--inject-287"><path d="M378.32,69.45c-2.68,4.18-11.35,12.63-27.2,8.79-13.51-3.27-15.56-16.13-13.9-19.53Z" style="fill:#ebebeb"></path><path d="M378.32,69.45c-2.68,4.18-11.35,12.63-27.2,8.79-13.51-3.27-15.56-16.13-13.9-19.53Z" style="opacity:0.1"></path><path d="M378.78,67c3.52-3.14-2.49-12.31-16.56-16.08s-23.65,1.9-22.56,5.4A4.14,4.14,0,0,0,337,59.69c-.32,2.63,3.94,9.89,19.19,13.67,14.51,3.6,21-2.32,22.15-3.91A3,3,0,0,0,378.78,67Z" style="fill:#ebebeb"></path><path d="M378.78,67c-3.52.85-7-.15-10.22-1.2a40,40,0,0,1-4.65-2c-4.53-2.35-8.37-5.58-13.46-7.32a16.11,16.11,0,0,0-10.79-.2,18,18,0,0,1,10.14,1.39c4.68,2,8.53,5.32,13.18,7.52a34.54,34.54,0,0,0,5,1.8c3.38.85,7.4,1.52,10.77,0Z" style="opacity:0.30000000000000004"></path><path d="M377.55,61.38a14.07,14.07,0,0,0-2.85-3.68,26.68,26.68,0,0,0-9.36-5.63l-2-.65-2.55-.64c-.75-.14-1.84-.32-2.6-.45q-1.59-.18-3.18-.3l-2.14,0c-1.41,0-2.84.12-4.26.24,2,.21,4.21.42,6.21.71a53.9,53.9,0,0,1,9.77,2.42,33.49,33.49,0,0,1,12.93,8Z" style="fill:#fff;opacity:0.7000000000000001"></path><path d="M376.71,68A24.57,24.57,0,0,1,360,63.69c-4.74-3-10-6.95-16.31-6.92a23.22,23.22,0,0,1,8.11,3.29c2.46,1.48,4.77,3.15,7.22,4.74a24.92,24.92,0,0,0,5,2.66,21.67,21.67,0,0,0,12.76.58Z" style="fill:#fff;opacity:0.7000000000000001"></path><path d="M260.71,301.84c4.55,2,16.45,4.2,27.5-7.8,9.43-10.22,4-22.05.72-24Z" style="fill:#ebebeb"></path><path d="M260.71,301.84c4.55,2,16.45,4.2,27.5-7.8,9.43-10.22,4-22.05.72-24Z" style="opacity:0.1"></path><path d="M259,300c-4.67-.66-4.77-11.63,4.84-22.57s20.72-11.55,21.76-8a4.16,4.16,0,0,1,4.11,1.33c1.73,2,2.22,10.41-8.37,22-10.06,11-18.78,9.75-20.59,9A2.94,2.94,0,0,1,259,300Z" style="fill:#ebebeb"></path><path d="M259,300c3.4-1.25,5.75-4,7.83-6.68a40.13,40.13,0,0,0,2.78-4.2c2.46-4.47,3.87-9.3,7.13-13.57a16.07,16.07,0,0,1,8.86-6.16,18,18,0,0,0-7.66,6.79c-2.78,4.26-4.14,9.16-6.79,13.57a33.5,33.5,0,0,1-3.18,4.29c-2.34,2.59-5.31,5.38-9,6Z" style="opacity:0.30000000000000004"></path><path d="M256.87,294.7a14.16,14.16,0,0,1,.33-4.65,26.43,26.43,0,0,1,4.66-9.87l1.28-1.64c.57-.65,1.17-1.3,1.76-1.94s1.35-1.3,1.92-1.83c.8-.68,1.64-1.35,2.47-2l1.75-1.22a41.26,41.26,0,0,1,3.68-2.17c-1.55,1.29-3.27,2.68-4.77,4a53.88,53.88,0,0,0-6.78,7.44,33.62,33.62,0,0,0-6.3,13.85Z" style="fill:#fff;opacity:0.7000000000000001"></path><path d="M261.27,299.77a24.6,24.6,0,0,0,11.52-12.93c2.27-5.13,4.44-11.32,9.73-14.81a23.12,23.12,0,0,0-4.93,7.24c-1.22,2.6-2.21,5.27-3.36,8a25,25,0,0,1-2.67,5,21.67,21.67,0,0,1-10.29,7.57Z" style="fill:#fff;opacity:0.7000000000000001"></path><path d="M394.27,149.85c4,4.82,15.74,13.79,32.76,4.82,14.51-7.65,13.86-25.07,11.2-29.13Z" style="fill:#ebebeb"></path><path d="M394.27,149.85c4,4.82,15.74,13.79,32.76,4.82,14.51-7.65,13.86-25.07,11.2-29.13Z" style="opacity:0.1"></path><path d="M393.19,146.71c-4.71-3.25-1.79-15.61,13.24-24.05s28.91-4.55,28.48.32a5,5,0,0,1,3.82,3.79c1,3.39-2.17,14-18.53,22.73-15.56,8.33-24.3,2.17-25.93.35A4.38,4.38,0,0,1,393.19,146.71Z" style="fill:#ebebeb"></path><path d="M393.19,146.71c4.17.25,7.89-1.93,11.26-4.11a45.86,45.86,0,0,0,4.8-3.72c4.58-4.21,8.18-9.41,13.52-13,3.48-2.39,8-3.78,12.14-2.93a18.61,18.61,0,0,0-11.13,4.34c-4.83,3.78-8.41,9.1-13.16,13.15a37.7,37.7,0,0,1-5.26,3.61c-3.63,2-8,3.84-12.17,2.63Z" style="opacity:0.30000000000000004"></path><path d="M392.18,141.13a19.67,19.67,0,0,1,2.17-5.59,31.88,31.88,0,0,1,8.73-9.94l2-1.4c.86-.52,1.74-1,2.61-1.54s1.92-.94,2.71-1.32c1.12-.45,2.25-.88,3.38-1.28l2.31-.65a39.71,39.71,0,0,1,4.7-.89c-2.13.84-4.47,1.72-6.57,2.66a56.31,56.31,0,0,0-10,5.89,40.7,40.7,0,0,0-12,14.06Z" style="fill:#fff;opacity:0.7000000000000001"></path><path d="M395.76,147.59a26.47,26.47,0,0,0,17.93-9.87c4.66-5.13,9.68-11.61,16.84-13.14a26.38,26.38,0,0,0-8.41,6.33c-2.43,2.56-4.66,5.33-7.05,8a29.67,29.67,0,0,1-5,4.73,22,22,0,0,1-14.29,3.92Z" style="fill:#fff;opacity:0.7000000000000001"></path><path d="M193.3,80c-4.72,4.11-17.77,11-33.11-.58-13.07-9.92-9.59-27-6.3-30.57Z" style="fill:#ebebeb"></path><path d="M193.3,80c-4.72,4.11-17.77,11-33.11-.58-13.07-9.92-9.59-27-6.3-30.57Z" style="opacity:0.1"></path><path d="M194.88,77.09c5.17-2.44,4.3-15.11-9.15-25.89S158,42,157.58,46.87A5,5,0,0,0,153.2,50c-1.51,3.19-.14,14.15,14.57,25.45,14,10.75,23.63,6.1,25.53,4.57A4.37,4.37,0,0,0,194.88,77.09Z" style="fill:#ebebeb"></path><path d="M194.88,77.09c-4.16-.44-7.47-3.2-10.44-5.89a47,47,0,0,1-4.14-4.46c-3.82-4.9-6.53-10.62-11.22-15-3.05-2.93-7.23-5-11.5-4.88A18.64,18.64,0,0,1,167.85,53c4.15,4.52,6.82,10.35,10.85,15.12a36.94,36.94,0,0,0,4.6,4.42c3.26,2.52,7.28,5.09,11.58,4.58Z" style="opacity:0.30000000000000004"></path><path d="M196.78,71.74a19.7,19.7,0,0,0-1.22-5.86,32,32,0,0,0-7-11.23L186.83,53c-.76-.66-1.54-1.31-2.32-2s-1.74-1.24-2.46-1.75c-1-.62-2.08-1.23-3.13-1.81l-2.17-1a40.19,40.19,0,0,0-4.49-1.64c2,1.17,4.13,2.43,6.05,3.7a55.31,55.31,0,0,1,8.91,7.44,40.59,40.59,0,0,1,9.56,15.82Z" style="fill:#fff;opacity:0.7000000000000001"></path><path d="M192.19,77.54a26.5,26.5,0,0,1-16.08-12.67c-3.76-5.81-7.65-13-14.47-15.7a26,26,0,0,1,7.27,7.62c2,2.92,3.72,6,5.65,9.07a29.34,29.34,0,0,0,4.18,5.48,22,22,0,0,0,13.45,6.2Z" style="fill:#fff;opacity:0.7000000000000001"></path><path d="M428.82,232c-4.12,3.54-15.48,9.48-28.72-.68-11.29-8.67-8.18-23.47-5.31-26.56Z" style="fill:#ebebeb"></path><path d="M428.82,232c-4.12,3.54-15.48,9.48-28.72-.68-11.29-8.67-8.18-23.47-5.31-26.56Z" style="opacity:0.1"></path><path d="M430.2,229.52c4.5-2.1,3.82-13.09-7.79-22.51s-24.05-8.13-24.4-3.91a4.37,4.37,0,0,0-3.82,2.68c-1.33,2.76-.2,12.27,12.5,22.16,12.09,9.4,20.47,5.41,22.13,4.1A3.8,3.8,0,0,0,430.2,229.52Z" style="fill:#ebebeb"></path><path d="M430.2,229.52c-3.6-.41-6.46-2.82-9-5.17a43.65,43.65,0,0,1-3.56-3.89c-3.29-4.27-5.61-9.25-9.65-13.07A14.19,14.19,0,0,0,398,203.1a16.09,16.09,0,0,1,8.87,5.35c3.58,3.94,5.87,9,9.33,13.17a32.17,32.17,0,0,0,4,3.86c2.82,2.21,6.29,4.46,10,4Z" style="opacity:0.30000000000000004"></path><path d="M431.88,224.89a17.2,17.2,0,0,0-1-5.1,27.81,27.81,0,0,0-6-9.78l-1.49-1.48c-.66-.58-1.33-1.15-2-1.71s-1.51-1.08-2.13-1.52q-1.34-.83-2.7-1.59l-1.88-.9a35.6,35.6,0,0,0-3.89-1.45c1.7,1,3.57,2.13,5.23,3.24a48.43,48.43,0,0,1,7.69,6.51,35.31,35.31,0,0,1,8.21,13.78Z" style="fill:#fff;opacity:0.7000000000000001"></path><path d="M427.87,229.89A23,23,0,0,1,414,218.82c-3.24-5.07-6.57-11.35-12.47-13.71a22.82,22.82,0,0,1,6.26,6.65c1.71,2.55,3.2,5.24,4.85,7.9a25.93,25.93,0,0,0,3.6,4.78,19.08,19.08,0,0,0,11.64,5.45Z" style="fill:#fff;opacity:0.7000000000000001"></path><path d="M327.37,311.68s-73.44-33.84-73.44-79.19,95.24-74.54,95.24-110-41.53-56.3-41.53-56.3,65.6,22.42,65.6,67.25-62.79,75.21-68.79,103.73C296.11,276.8,327.37,311.68,327.37,311.68Z" style="fill:#ebebeb;opacity:0.6000000000000001"></path><path d="M323.74,311.68s73.44-26.6,73.44-62.26-95.25-58.61-95.25-86.48,41.54-44.27,41.54-44.27-65.61,17.63-65.61,52.88S350,231,355.12,259.67C360.18,287.75,323.74,311.68,323.74,311.68Z" style="fill:#ebebeb;opacity:0.6000000000000001"></path></g><g id="freepik--coffee-cup--inject-287"><rect x="82.95" y="454.08" width="139.55" height="9.9" style="fill:#FFC727"></rect><rect x="82.95" y="454.08" width="139.55" height="9.9" style="fill:#fff;opacity:0.8"></rect><polygon points="222.5 454.08 222.5 456.55 82.95 459.03 82.95 454.08 222.5 454.08" style="fill:#FFC727;opacity:0.2"></polygon><polygon points="256.21 134.77 229.06 454.08 76.38 454.08 49.23 134.77 256.21 134.77" style="fill:#FFC727"></polygon><polygon points="256.21 134.77 229.06 454.08 76.38 454.08 49.23 134.77 256.21 134.77" style="fill:#fff;opacity:0.8"></polygon><polygon points="52.54 173.73 51.84 165.46 253.6 165.46 229.06 454.08 197.68 453.82 212.19 187.27 52.54 173.73" style="fill:#FFC727;opacity:0.2"></polygon><polygon points="239.12 370.93 66.33 370.93 55.49 249.44 249.96 249.44 239.12 370.93" style="fill:#FFC727"></polygon><polygon points="239.12 370.93 66.33 370.93 55.49 249.44 249.96 249.44 239.12 370.93" style="opacity:0.5"></polygon><polygon points="239.12 370.93 66.33 370.93 55.49 249.44 249.96 249.44 239.12 370.93" style="fill:#fff;opacity:0.4"></polygon><path d="M246.51,288,242.4,334H194.85a48,48,0,0,1-84.26,0H63L58.93,288h51.66a48,48,0,0,1,84.26,0Z" style="fill:#FFC727"></path><g style="opacity:0.5"><path d="M246.51,288,242.4,334H194.85a48,48,0,0,1-84.26,0H63L58.93,288h51.66a48,48,0,0,1,84.26,0Z" style="fill:#fff"></path></g><path d="M157.19,347.31s3.17-5.4,1.59-14.44-8.64-19.29-6.77-35.93,9.5-20.89,9.5-20.89,20.73,4.9,20.73,35.63S162.67,347.31,157.19,347.31Z" style="fill:#FFC727"></path><path d="M149,347.31s4.39-6,2.14-15.79c-2.46-10.7-8.74-22.13-5.74-37.55,2.49-12.79,7.35-19.3,7.35-19.3s-30.5-.34-29.52,36.32C124.23,348.51,149,347.31,149,347.31Z" style="fill:#FFC727"></path><g style="opacity:0.6000000000000001"><path d="M157.19,347.31s3.17-5.4,1.59-14.44-8.64-19.29-6.77-35.93,9.5-20.89,9.5-20.89,20.73,4.9,20.73,35.63S162.67,347.31,157.19,347.31Z"></path><path d="M149,347.31s4.39-6,2.14-15.79c-2.46-10.7-8.74-22.13-5.74-37.55,2.49-12.79,7.35-19.3,7.35-19.3s-30.5-.34-29.52,36.32C124.23,348.51,149,347.31,149,347.31Z"></path></g><polygon points="74.91 370.93 64.86 249.44 73.97 249.44 83.98 370.93 74.91 370.93" style="fill:#fff;opacity:0.1"></polygon><polyline points="249.96 249.44 208.69 249.44 202.22 370.93 239.12 370.93" style="opacity:0.1"></polyline><polygon points="271.8 165.46 33.64 165.46 40.15 128.78 265.29 128.78 271.8 165.46" style="fill:#FFC727"></polygon><polygon points="271.8 165.46 33.64 165.46 40.15 128.78 265.29 128.78 271.8 165.46" style="opacity:0.7000000000000001"></polygon><polygon points="33.64 165.46 259.85 152.5 265.29 128.78 271.8 165.46 33.64 165.46" style="opacity:0.1"></polygon><polygon points="33.64 165.46 46.32 134.77 163.37 128.78 40.15 128.78 33.64 165.46" style="fill:#fff;opacity:0.2"></polygon><polygon points="256.21 128.78 49.23 128.78 58.36 79.75 247.08 79.75 256.21 128.78" style="fill:#FFC727"></polygon><polygon points="256.21 128.78 49.23 128.78 58.36 79.75 247.08 79.75 256.21 128.78" style="opacity:0.7000000000000001"></polygon><polygon points="90.84 128.78 243.53 111.31 247.08 79.75 256.21 128.78 90.84 128.78" style="opacity:0.1"></polygon><polygon points="49.23 128.78 64.05 88.86 156.78 79.75 58.36 79.75 49.23 128.78" style="fill:#fff;opacity:0.2"></polygon></g><g id="freepik--Mug--inject-287"><rect x="290.62" y="439.98" width="69.86" height="6.86" style="fill:#FFC727"></rect><polygon points="290.62 439.98 290.62 442.64 360.48 444.51 360.48 439.98 290.62 439.98" style="opacity:0.1"></polygon><path d="M438.3,407.16A38.24,38.24,0,0,1,398.91,417a40.47,40.47,0,0,1-6.54-2.82,51,51,0,0,1-8.84-6.07l9.93-10.7a32,32,0,0,0,4.67,3.42c15,9.12,26.53-1.32,28.84-3.75,10.63-10.87,17.32-38.26,9.38-50.31-.51-.88-3-2.52-14-1.9-2,.14-4.34.29-7,.59a28.11,28.11,0,0,1-6.25.36l.61-7.19.14-7.25c.7,0,1.82-.16,3.28-.34a101.66,101.66,0,0,1,15.52-.8c8,.36,16.16,2.45,20.51,9.11C462.06,359,451.62,393.52,438.3,407.16Z" style="fill:#FFC727"></path><g style="opacity:0.1"><path d="M438.3,407.16A38.24,38.24,0,0,1,398.91,417a40.47,40.47,0,0,1-6.54-2.82,51,51,0,0,1-8.84-6.07l9.93-10.7a32,32,0,0,0,4.67,3.42c15,9.12,26.53-1.32,28.84-3.75,10.63-10.87,17.32-38.26,9.38-50.31-.51-.88-3-2.52-14-1.9-2,.14-4.34.29-7,.59a28.11,28.11,0,0,1-6.25.36l.61-7.19.14-7.25c.7,0,1.82-.16,3.28-.34a101.66,101.66,0,0,1,15.52-.8c8,.36,16.16,2.45,20.51,9.11C462.06,359,451.62,393.52,438.3,407.16Z"></path></g><path d="M232.61,308.68s5.68,45.49,14.78,77.46c7.06,24.79,18.36,49,42.95,54.07,9,1.86,21.58,1.36,35.21,1.36s26.18.5,35.21-1.36c24.59-5.06,35.9-29.28,43-54.07,9.11-32,14.78-77.46,14.78-77.46Z" style="fill:#FFC727"></path><path d="M303.69,441.53a79.31,79.31,0,0,1-13.34-1.32c-24.59-5.06-35.89-29.28-43-54.07-9.11-32-14.79-77.46-14.79-77.46h21.21C255.05,330.58,262.8,429.42,303.69,441.53Z" style="fill:#fff;opacity:0.30000000000000004"></path><path d="M339.82,439.91c-4.32.87-14.27,1.66-14.27,1.66,13.63,0,26.17.5,35.21-1.36,24.59-5.06,35.9-29.58,43-54.37,9.1-32,14.78-77.16,14.78-77.16H339.8s43.95,8.94,47.89,24.32C394,357.69,371.5,433.48,339.82,439.91Z" style="opacity:0.1"></path><polygon points="405.3 458.65 245.81 458.65 214.16 442.25 436.95 442.25 405.3 458.65" style="fill:#FFC727"></polygon><rect x="245.72" y="458.65" width="159.55" height="5.27" style="fill:#FFC727"></rect><polygon points="245.72 458.65 245.72 460.69 405.27 462.12 405.27 458.65 245.72 458.65" style="opacity:0.1"></polygon></g><g id="freepik--coffee-beans--inject-287"><path d="M289.11,433.56c-2.52,3.92-10.67,11.87-25.58,8.26-12.7-3.07-14.63-15.16-13.07-18.36Z" style="fill:#FFC727"></path><path d="M289.11,433.56c-2.52,3.92-10.67,11.87-25.58,8.26-12.7-3.07-14.63-15.16-13.07-18.36Z" style="opacity:0.8"></path><path d="M289.53,431.24c3.32-3-2.34-11.58-15.56-15.13s-22.23,1.8-21.21,5.08a3.9,3.9,0,0,0-2.52,3.19c-.3,2.48,3.7,9.29,18,12.85,13.64,3.38,19.78-2.18,20.83-3.67A2.72,2.72,0,0,0,289.53,431.24Z" style="fill:#FFC727"></path><g style="opacity:0.7000000000000001"><path d="M289.53,431.24c3.32-3-2.34-11.58-15.56-15.13s-22.23,1.8-21.21,5.08a3.9,3.9,0,0,0-2.52,3.19c-.3,2.48,3.7,9.29,18,12.85,13.64,3.38,19.78-2.18,20.83-3.67A2.72,2.72,0,0,0,289.53,431.24Z"></path></g><path d="M289.53,431.24c-3.31.79-6.59-.15-9.6-1.14a37.58,37.58,0,0,1-4.37-1.83c-4.26-2.21-7.88-5.25-12.65-6.89a15.17,15.17,0,0,0-10.15-.19,16.92,16.92,0,0,1,9.53,1.31c4.4,1.88,8,5,12.4,7.07a31.5,31.5,0,0,0,4.72,1.69c3.18.8,7,1.43,10.12,0Z" style="opacity:0.30000000000000004"></path><path d="M288.38,426a13,13,0,0,0-2.68-3.46,24.94,24.94,0,0,0-8.8-5.29l-1.85-.61c-.79-.21-1.6-.41-2.4-.6s-1.73-.31-2.45-.43c-1-.11-2-.2-3-.28l-2,0c-1.33,0-2.68.11-4,.22,1.89.2,4,.4,5.84.67a51.46,51.46,0,0,1,9.19,2.28A31.55,31.55,0,0,1,288.38,426Z" style="fill:#FFC727;opacity:0.1"></path><path d="M287.59,432.23a23,23,0,0,1-15.75-4.09c-4.46-2.83-9.39-6.54-15.34-6.51a21.94,21.94,0,0,1,7.63,3.09c2.31,1.4,4.48,3,6.78,4.47a23.46,23.46,0,0,0,4.68,2.49,20.36,20.36,0,0,0,12,.55Z" style="fill:#FFC727;opacity:0.1"></path><path d="M276.81,435.41c3.26,3.94,12.84,11.25,26.72,3.93,11.84-6.24,11.31-20.44,9.14-23.76Z" style="fill:#FFC727"></path><path d="M276.81,435.41c3.26,3.94,12.84,11.25,26.72,3.93,11.84-6.24,11.31-20.44,9.14-23.76Z" style="opacity:0.8"></path><path d="M275.93,432.85c-3.84-2.65-1.46-12.73,10.8-19.62s23.58-3.71,23.23.26a4.1,4.1,0,0,1,3.11,3.09c.8,2.77-1.76,11.4-15.11,18.54-12.69,6.8-19.82,1.77-21.15.29A3.55,3.55,0,0,1,275.93,432.85Z" style="fill:#FFC727"></path><g style="opacity:0.7000000000000001"><path d="M275.93,432.85c-3.84-2.65-1.46-12.73,10.8-19.62s23.58-3.71,23.23.26a4.1,4.1,0,0,1,3.11,3.09c.8,2.77-1.76,11.4-15.11,18.54-12.69,6.8-19.82,1.77-21.15.29A3.55,3.55,0,0,1,275.93,432.85Z"></path></g><path d="M275.93,432.85c3.4.2,6.43-1.58,9.19-3.35a38.56,38.56,0,0,0,3.91-3c3.73-3.43,6.67-7.68,11-10.57a13.31,13.31,0,0,1,9.9-2.4,15.16,15.16,0,0,0-9.07,3.54c-3.95,3.09-6.87,7.43-10.74,10.73a30.45,30.45,0,0,1-4.29,2.94c-3,1.6-6.54,3.14-9.93,2.15Z" style="opacity:0.30000000000000004"></path><path d="M275.11,428.3a16,16,0,0,1,1.76-4.56,26.14,26.14,0,0,1,7.13-8.11l1.62-1.14c.69-.42,1.41-.85,2.12-1.26s1.57-.76,2.22-1.07c.91-.37,1.83-.72,2.75-1.05l1.89-.53a33.16,33.16,0,0,1,3.83-.73c-1.74.69-3.65,1.41-5.36,2.18a45.46,45.46,0,0,0-8.17,4.8,33.21,33.21,0,0,0-9.79,11.47Z" style="fill:#FFC727;opacity:0.1"></path><path d="M278,433.57a21.59,21.59,0,0,0,14.62-8.06c3.81-4.17,7.9-9.47,13.74-10.71a21.32,21.32,0,0,0-6.86,5.16c-2,2.09-3.8,4.35-5.75,6.55a24.25,24.25,0,0,1-4.1,3.86,17.94,17.94,0,0,1-11.65,3.2Z" style="fill:#FFC727;opacity:0.1"></path><path d="M424,433.35c-2.72,4.32-11.28,12.81-26,7.33-12.55-4.66-13.84-18.82-12.12-22.39Z" style="fill:#FFC727"></path><path d="M424,433.35c-2.72,4.32-11.28,12.81-26,7.33-12.55-4.66-13.84-18.82-12.12-22.39Z" style="opacity:0.8"></path><path d="M424.57,430.7c3.46-3.12-.2-12.81-13.24-18.07s-23.86-.65-23,3.24a4.12,4.12,0,0,0-2.69,3.47c-.43,2.84,3.22,11.08,17.37,16.45,13.46,5.1,19.89-.8,21-2.44A3.57,3.57,0,0,0,424.57,430.7Z" style="fill:#FFC727"></path><g style="opacity:0.7000000000000001"><path d="M424.57,430.7c3.46-3.12-.2-12.81-13.24-18.07s-23.86-.65-23,3.24a4.12,4.12,0,0,0-2.69,3.47c-.43,2.84,3.22,11.08,17.37,16.45,13.46,5.1,19.89-.8,21-2.44A3.57,3.57,0,0,0,424.57,430.7Z"></path></g><path d="M424.57,430.7c-3.35.64-6.59-.74-9.54-2.15a38,38,0,0,1-4.28-2.5c-4.14-2.93-7.6-6.76-12.29-9.07a13.33,13.33,0,0,0-10.13-1.11,15.22,15.22,0,0,1,9.46,2.35c4.3,2.55,7.76,6.48,12,9.26a30.16,30.16,0,0,0,4.63,2.37c3.15,1.2,6.89,2.26,10.13.85Z" style="opacity:0.30000000000000004"></path><path d="M424.8,426.08a16.42,16.42,0,0,0-2.34-4.29,25.93,25.93,0,0,0-8.11-7.13l-1.75-.92c-.75-.34-1.51-.66-2.27-1s-1.65-.55-2.33-.78c-.95-.25-1.91-.47-2.87-.68l-1.94-.29a33.83,33.83,0,0,0-3.89-.23c1.81.46,3.8.93,5.59,1.47a45.4,45.4,0,0,1,8.72,3.72,33.18,33.18,0,0,1,11.19,10.11Z" style="fill:#FFC727;opacity:0.1"></path><path d="M422.58,431.68A21.6,21.6,0,0,1,407,425.57c-4.31-3.65-9.05-8.38-15-8.86a21.51,21.51,0,0,1,7.47,4.24c2.23,1.82,4.32,3.83,6.54,5.76a24.06,24.06,0,0,0,4.56,3.29,17.93,17.93,0,0,0,12,1.68Z" style="fill:#FFC727;opacity:0.1"></path></g><g id="freepik--Table--inject-287"><path d="M51.68,464c127.06-.61,269.58-.61,396.64,0-127.06.62-269.58.62-396.64,0Z" style="fill:#263238"></path></g></svg>
